# Facewall morph target
# frame 3, 529 vertices, 968 triangles
o facewall_morph_03
v -5.886719 -3.890625 0.781250
v -5.886719 -3.539062 0.781250
v -5.886719 -3.187500 0.781250
v -5.886719 -2.835938 0.781250
v -5.886719 -2.484375 0.781250
v -5.886719 -2.132812 0.781250
v -5.886719 -1.781250 0.781250
v -5.886719 -1.429688 0.781250
v -5.886719 -1.078125 0.781250
v -5.886719 -0.726562 0.781250
v -5.886719 -0.375000 0.781250
v -5.886719 0.015625 0.781250
v -5.886719 0.367188 0.781250
v -5.886719 0.718750 0.781250
v -5.886719 1.070312 0.781250
v -5.886719 1.421875 0.781250
v -5.886719 1.773438 0.781250
v -5.886719 2.125000 0.781250
v -5.886719 2.476562 0.781250
v -5.886719 2.828125 0.781250
v -5.886719 3.179688 0.781250
v -5.886719 3.531250 0.781250
v -5.886719 3.921875 0.781250
v -5.339844 -3.890625 0.781250
v -5.339844 -3.539062 0.781250
v -5.339844 -3.187500 0.781250
v -5.339844 -2.835938 0.781250
v -5.339844 -2.484375 0.781250
v -5.339844 -2.132812 0.781250
v -5.339844 -1.781250 0.781250
v -5.339844 -1.429688 0.781250
v -5.339844 -1.078125 0.781250
v -5.339844 -0.726562 0.781250
v -5.339844 -0.375000 0.781250
v -5.339844 0.015625 0.781250
v -5.339844 0.367188 0.781250
v -5.339844 0.718750 0.781250
v -5.339844 1.070312 0.781250
v -5.339844 1.421875 0.781250
v -5.339844 1.773438 0.781250
v -5.339844 2.125000 0.781250
v -5.339844 2.476562 0.781250
v -5.339844 2.828125 0.781250
v -5.339844 3.179688 0.781250
v -5.339844 3.531250 0.781250
v -5.339844 3.921875 0.781250
v -4.753906 -3.890625 0.781250
v -4.753906 -3.539062 0.781250
v -4.753906 -3.187500 0.781250
v -4.753906 -2.835938 0.781250
v -4.753906 -2.484375 0.781250
v -4.753906 -2.132812 0.781250
v -4.753906 -1.781250 0.781250
v -4.753906 -1.429688 0.781250
v -4.753906 -1.078125 0.781250
v -4.753906 -0.726562 0.781250
v -4.753906 -0.375000 0.781250
v -4.753906 0.015625 0.781250
v -4.753906 0.367188 0.781250
v -4.753906 0.718750 0.781250
v -4.753906 1.070312 0.781250
v -4.753906 1.421875 0.781250
v -4.753906 1.773438 0.781250
v -4.753906 2.125000 0.781250
v -4.753906 2.476562 0.781250
v -4.753906 2.828125 0.781250
v -4.753906 3.179688 0.781250
v -4.753906 3.531250 0.781250
v -4.753906 3.921875 0.781250
v -4.207031 -3.890625 0.781250
v -4.207031 -3.539062 0.781250
v -4.207031 -3.187500 0.781250
v -4.207031 -2.835938 0.781250
v -4.207031 -2.484375 0.781250
v -4.207031 -2.132812 0.781250
v -4.207031 -1.781250 0.781250
v -4.207031 -1.429688 0.781250
v -4.207031 -1.078125 0.781250
v -4.207031 -0.726562 0.781250
v -4.207031 -0.375000 0.781250
v -4.207031 0.015625 0.781250
v -4.207031 0.367188 0.781250
v -4.207031 0.718750 0.781250
v -4.207031 1.070312 0.781250
v -4.207031 1.421875 0.781250
v -4.207031 1.773438 0.781250
v -4.207031 2.125000 0.781250
v -4.207031 2.476562 0.781250
v -4.207031 2.828125 0.781250
v -4.207031 3.179688 0.781250
v -4.207031 3.531250 0.781250
v -4.207031 3.921875 0.781250
v -3.621094 -3.890625 0.781250
v -3.621094 -3.539062 0.781250
v -3.621094 -3.187500 0.781250
v -3.621094 -2.835938 0.781250
v -3.621094 -2.484375 0.781250
v -3.621094 -2.132812 0.781250
v -3.621094 -1.781250 0.781250
v -3.621094 -1.429688 0.781250
v -3.621094 -1.078125 0.781250
v -3.621094 -0.726562 0.781250
v -3.621094 -0.375000 0.781250
v -3.621094 0.015625 0.781250
v -3.621094 0.367188 0.781250
v -3.621094 0.718750 0.781250
v -3.621094 1.070312 0.781250
v -3.621094 1.421875 0.781250
v -3.621094 1.773438 0.781250
v -3.621094 2.125000 0.781250
v -3.621094 2.476562 0.781250
v -3.621094 2.828125 0.781250
v -3.621094 3.179688 0.781250
v -3.621094 3.531250 0.781250
v -3.621094 3.921875 0.781250
v -3.074219 -3.890625 0.781250
v -3.074219 -3.539062 0.781250
v -3.074219 -3.187500 0.781250
v -3.074219 -2.835938 0.781250
v -3.074219 -2.484375 0.781250
v -3.074219 -2.132812 0.777344
v -3.074219 -1.781250 0.746094
v -3.074219 -1.429688 0.746094
v -3.074219 -1.078125 0.777344
v -3.074219 -0.726562 0.777344
v -3.074219 -0.375000 0.777344
v -3.074219 0.015625 0.781250
v -3.074219 0.367188 0.781250
v -3.074219 0.718750 0.781250
v -3.074219 1.070312 0.781250
v -3.074219 1.421875 0.781250
v -3.074219 1.773438 0.769531
v -3.074219 2.125000 0.769531
v -3.074219 2.476562 0.769531
v -3.074219 2.828125 0.781250
v -3.074219 3.179688 0.777344
v -3.074219 3.531250 0.781250
v -3.074219 3.921875 0.781250
v -2.488281 -3.890625 0.781250
v -2.488281 -3.539062 0.781250
v -2.488281 -3.187500 0.781250
v -2.488281 -2.835938 0.750000
v -2.492188 -2.484375 0.730469
v -2.492188 -2.132812 0.730469
v -2.492188 -1.781250 0.718750
v -2.492188 -1.429688 0.699219
v -2.503906 -1.078125 0.648438
v -2.507812 -0.726562 0.636719
v -2.492188 -0.375000 0.730469
v -2.507812 0.015625 0.636719
v -2.492188 0.367188 0.730469
v -2.488281 0.718750 0.742188
v -2.492188 1.070312 0.730469
v -2.488281 1.421875 0.742188
v -2.496094 1.773438 0.687500
v -2.492188 2.125000 0.718750
v -2.492188 2.476562 0.730469
v -2.492188 2.828125 0.730469
v -2.492188 3.179688 0.730469
v -2.488281 3.531250 0.742188
v -2.488281 3.921875 0.761719
v -1.945312 -3.890625 0.699219
v -1.945312 -3.539062 0.710938
v -1.953125 -3.187500 0.640625
v -1.957031 -2.835938 0.613281
v -1.968750 -2.484375 0.574219
v -2.019531 -2.132812 0.425781
v -2.035156 -1.781250 0.398438
v -2.085938 -1.429688 0.308594
v -2.085938 -1.078125 0.308594
v -2.109375 -0.726562 0.273438
v -2.128906 -0.375000 0.250000
v -2.128906 0.015625 0.250000
v -2.070312 0.367188 0.335938
v -1.957031 0.718750 0.613281
v -1.957031 1.070312 0.613281
v -2.000000 1.421875 0.476562
v -1.988281 1.773438 0.503906
v -1.976562 2.125000 0.546875
v -1.968750 2.476562 0.574219
v -1.972656 2.828125 0.558594
v -1.957031 3.179688 0.628906
v -1.949219 3.531250 0.671875
v -1.941406 3.921875 0.726562
v -1.410156 -3.890625 0.425781
v -1.460938 -3.539062 0.285156
v -1.644531 -3.187500 -0.003906
v -1.738281 -2.835938 -0.105469
v -1.781250 -2.484375 -0.144531
v -1.828125 -2.132812 -0.179688
v -1.890625 -1.781250 -0.230469
v -1.890625 -1.429688 -0.230469
v -1.855469 -1.078125 -0.207031
v -1.796875 -0.726562 -0.156250
v -1.812500 -0.375000 -0.167969
v -1.796875 0.015625 -0.156250
v -1.812500 0.367188 -0.167969
v -1.796875 0.718750 -0.156250
v -1.765625 1.070312 -0.132812
v -1.738281 1.421875 -0.105469
v -1.660156 1.773438 -0.019531
v -1.585938 2.125000 0.070312
v -1.515625 2.476562 0.183594
v -1.441406 2.828125 0.339844
v -1.355469 3.179688 0.781250
v -1.355469 3.531250 0.781250
v -1.355469 3.921875 0.781250
v -1.105469 -3.890625 -0.148438
v -1.277344 -3.539062 -0.351562
v -1.398438 -3.187500 -0.460938
v -1.437500 -2.835938 -0.492188
v -1.496094 -2.484375 -0.535156
v -1.554688 -2.132812 -0.574219
v -1.578125 -1.781250 -0.585938
v -1.554688 -1.429688 -0.574219
v -1.515625 -1.078125 -0.546875
v -1.148438 -0.726562 -0.207031
v -1.496094 -0.375000 -0.535156
v -1.476562 0.015625 -0.519531
v -1.476562 0.367188 -0.519531
v -1.496094 0.718750 -0.535156
v -1.476562 1.070312 -0.519531
v -1.437500 1.421875 -0.492188
v -1.417969 1.773438 -0.476562
v -1.382812 2.125000 -0.449219
v -1.343750 2.476562 -0.414062
v -1.242188 2.828125 -0.316406
v -0.832031 3.179688 0.515625
v -0.816406 3.531250 0.613281
v -0.808594 3.921875 0.757812
v -0.757812 -3.890625 -0.613281
v -0.953125 -3.539062 -0.796875
v -1.042969 -3.187500 -0.867188
v -1.093750 -2.835938 -0.902344
v -1.140625 -2.484375 -0.933594
v -1.191406 -2.132812 -0.964844
v -1.214844 -1.781250 -0.980469
v -1.191406 -1.429688 -0.964844
v -1.117188 -1.078125 -0.917969
v -0.699219 -0.726562 -0.546875
v -1.042969 -0.375000 -0.867188
v -1.117188 0.015625 -0.917969
v -1.140625 0.367188 -0.933594
v -1.167969 0.718750 -0.949219
v -1.140625 1.070312 -0.933594
v -1.140625 1.421875 -0.933594
v -1.191406 1.773438 -0.964844
v -1.070312 2.125000 -0.886719
v -1.042969 2.476562 -0.867188
v -0.996094 2.828125 -0.832031
v -0.976562 3.179688 -0.812500
v -0.843750 3.531250 -0.699219
v -0.250000 3.921875 0.441406
v -0.375000 -3.890625 -1.035156
v -0.589844 -3.539062 -1.222656
v -0.703125 -3.187500 -1.304688
v -0.761719 -2.835938 -1.343750
v -0.820312 -2.484375 -1.378906
v -0.851562 -2.132812 -1.398438
v -0.882812 -1.781250 -1.414062
v -0.851562 -1.429688 -1.398438
v -0.820312 -1.078125 -1.378906
v -0.792969 -0.726562 -1.359375
v -0.882812 -0.375000 -1.414062
v -1.039062 0.015625 -1.492188
v -1.164062 0.367188 -1.542969
v -1.226562 0.718750 -1.566406
v -0.976562 1.070312 -1.460938
v -1.007812 1.421875 -1.476562
v -0.976562 1.773438 -1.460938
v -0.296875 2.125000 -0.957031
v 0.113281 2.476562 -0.339844
v -0.792969 2.828125 -1.359375
v -0.675781 3.179688 -1.285156
v -0.617188 3.531250 -1.242188
v 0.273438 3.921875 0.089844
v 0.015625 -3.890625 -1.410156
v -0.207031 -3.539062 -1.605469
v -0.343750 -3.187500 -1.703125
v -0.445312 -2.835938 -1.769531
v -0.515625 -2.484375 -1.812500
v -0.554688 -2.132812 -1.832031
v -0.589844 -1.781250 -1.851562
v -0.554688 -1.429688 -1.832031
v -0.445312 -1.078125 -1.769531
v -0.343750 -0.726562 -1.703125
v -0.445312 -0.375000 -1.769531
v -0.589844 0.015625 -1.851562
v -0.699219 0.367188 -1.902344
v -0.808594 0.718750 -1.953125
v -0.625000 1.070312 -1.867188
v -0.660156 1.421875 -1.886719
v -0.625000 1.773438 -1.867188
v 0.164062 2.125000 -1.253906
v 0.625000 2.476562 -0.539062
v -0.445312 2.828125 -1.769531
v -0.343750 3.179688 -1.703125
v -0.273438 3.531250 -1.656250
v 0.820312 3.921875 0.031250
v 0.546875 -3.890625 -1.714844
v 0.210938 -3.539062 -2.023438
v 0.050781 -3.187500 -2.144531
v -0.031250 -2.835938 -2.199219
v -0.156250 -2.484375 -2.273438
v -0.238281 -2.132812 -2.320312
v -0.281250 -1.781250 -2.343750
v -0.195312 -1.429688 -2.296875
v -0.113281 -1.078125 -2.250000
v 0.875000 -0.726562 -1.300781
v -0.031250 -0.375000 -2.199219
v -0.070312 0.015625 -2.222656
v -0.113281 0.367188 -2.250000
v -0.113281 0.718750 -2.250000
v -0.113281 1.070312 -2.250000
v -0.070312 1.421875 -2.222656
v -0.031250 1.773438 -2.199219
v 0.011719 2.125000 -2.171875
v 0.050781 2.476562 -2.144531
v 0.171875 2.828125 -2.054688
v 0.328125 3.179688 -1.925781
v 1.386719 3.531250 -0.132812
v 1.460938 3.921875 0.261719
v 1.398438 -3.890625 -1.519531
v 0.898438 -3.539062 -2.156250
v 0.593750 -3.187500 -2.437500
v 0.453125 -2.835938 -2.542969
v 0.312500 -2.484375 -2.644531
v 0.167969 -2.132812 -2.734375
v 0.070312 -1.781250 -2.789062
v 0.117188 -1.429688 -2.761719
v 0.214844 -1.078125 -2.703125
v 1.699219 -0.726562 -0.937500
v 0.265625 -0.375000 -2.675781
v 0.312500 0.015625 -2.644531
v 0.312500 0.367188 -2.644531
v 0.312500 0.718750 -2.644531
v 0.359375 1.070312 -2.609375
v 0.453125 1.421875 -2.542969
v 0.546875 1.773438 -2.472656
v 0.593750 2.125000 -2.437500
v 0.812500 2.476562 -2.242188
v 1.105469 2.828125 -1.925781
v 2.035156 3.179688 0.507812
v 2.042969 3.531250 0.714844
v 2.042969 3.921875 0.714844
v 2.421875 -3.890625 -0.664062
v 2.324219 -3.539062 -0.968750
v 1.921875 -3.187500 -1.812500
v 1.437500 -2.835938 -2.468750
v 1.187500 -2.484375 -2.726562
v 0.976562 -2.132812 -2.910156
v 0.871094 -1.781250 -2.996094
v 0.761719 -1.429688 -3.078125
v 0.761719 -1.078125 -3.078125
v 1.031250 -0.726562 -2.867188
v 0.976562 -0.375000 -2.910156
v 0.976562 0.015625 -2.910156
v 0.976562 0.367188 -2.910156
v 1.031250 0.718750 -2.867188
v 1.187500 1.070312 -2.726562
v 1.437500 1.421875 -2.468750
v 1.921875 1.773438 -1.812500
v 2.140625 2.125000 -1.402344
v 2.265625 2.476562 -1.117188
v 2.398438 2.828125 -0.742188
v 2.519531 3.179688 -0.273438
v 2.589844 3.531250 0.128906
v 2.628906 3.921875 0.781250
v 3.125000 -3.890625 0.019531
v 3.113281 -3.539062 -0.074219
v 3.023438 -3.187500 -0.539062
v 2.980469 -2.835938 -0.722656
v 2.898438 -2.484375 -0.992188
v 3.175781 -2.132812 0.781250
v 2.953125 -1.781250 -0.812500
v 3.003906 -1.429688 -0.632812
v 2.898438 -1.078125 -0.992188
v 2.667969 -0.726562 -1.593750
v 3.082031 -0.375000 -0.261719
v 3.082031 0.015625 -0.261719
v 3.082031 0.367188 -0.261719
v 3.082031 0.718750 -0.261719
v 3.082031 1.070312 -0.261719
v 3.097656 1.421875 -0.167969
v 2.898438 1.773438 -0.992188
v 3.023438 2.125000 -0.539062
v 3.082031 2.476562 -0.261719
v 3.113281 2.828125 -0.074219
v 3.156250 3.179688 0.304688
v 3.164062 3.531250 0.398438
v 3.175781 3.921875 0.687500
v 3.761719 -3.890625 0.781250
v 3.757812 -3.539062 0.558594
v 3.746094 -3.187500 0.335938
v 3.714844 -2.835938 0.000000
v 3.738281 -2.484375 0.222656
v 3.761719 -2.132812 0.781250
v 3.714844 -1.781250 0.000000
v 3.726562 -1.429688 0.113281
v 3.726562 -1.078125 0.113281
v 3.648438 -0.726562 -0.437500
v 3.746094 -0.375000 0.335938
v 3.746094 0.015625 0.335938
v 3.746094 0.367188 0.335938
v 3.746094 0.718750 0.335938
v 3.746094 1.070312 0.335938
v 3.753906 1.421875 0.445312
v 3.753906 1.773438 0.445312
v 3.753906 2.125000 0.445312
v 3.738281 2.476562 0.222656
v 3.753906 2.828125 0.445312
v 3.761719 3.179688 0.671875
v 3.761719 3.531250 0.781250
v 3.761719 3.921875 0.781250
v 4.308594 -3.890625 0.781250
v 4.308594 -3.539062 0.781250
v 4.308594 -3.187500 0.652344
v 4.308594 -2.835938 0.652344
v 4.304688 -2.484375 0.523438
v 4.296875 -2.132812 0.398438
v 4.308594 -1.781250 0.652344
v 4.304688 -1.429688 0.523438
v 4.296875 -1.078125 0.398438
v 4.289062 -0.726562 0.269531
v 4.308594 -0.375000 0.781250
v 4.308594 0.015625 0.781250
v 4.308594 0.367188 0.781250
v 4.308594 0.718750 0.781250
v 4.308594 1.070312 0.781250
v 4.308594 1.421875 0.781250
v 4.308594 1.773438 0.781250
v 4.308594 2.125000 0.781250
v 4.308594 2.476562 0.781250
v 4.308594 2.828125 0.781250
v 4.308594 3.179688 0.781250
v 4.308594 3.531250 0.781250
v 4.308594 3.921875 0.781250
v 4.894531 -3.890625 0.781250
v 4.894531 -3.539062 0.781250
v 4.894531 -3.187500 0.781250
v 4.894531 -2.835938 0.781250
v 4.894531 -2.484375 0.781250
v 4.894531 -2.132812 0.781250
v 4.894531 -1.781250 0.781250
v 4.894531 -1.429688 0.781250
v 4.894531 -1.078125 0.781250
v 4.894531 -0.726562 0.781250
v 4.894531 -0.375000 0.781250
v 4.894531 0.015625 0.781250
v 4.894531 0.367188 0.781250
v 4.894531 0.718750 0.781250
v 4.894531 1.070312 0.781250
v 4.894531 1.421875 0.781250
v 4.894531 1.773438 0.781250
v 4.894531 2.125000 0.781250
v 4.894531 2.476562 0.781250
v 4.894531 2.828125 0.781250
v 4.894531 3.179688 0.781250
v 4.894531 3.531250 0.781250
v 4.894531 3.921875 0.781250
v 5.441406 -3.890625 0.781250
v 5.441406 -3.539062 0.781250
v 5.441406 -3.187500 0.781250
v 5.441406 -2.835938 0.781250
v 5.441406 -2.484375 0.781250
v 5.441406 -2.132812 0.781250
v 5.441406 -1.781250 0.781250
v 5.441406 -1.429688 0.781250
v 5.441406 -1.078125 0.781250
v 5.441406 -0.726562 0.781250
v 5.441406 -0.375000 0.781250
v 5.441406 0.015625 0.781250
v 5.441406 0.367188 0.781250
v 5.441406 0.718750 0.781250
v 5.441406 1.070312 0.781250
v 5.441406 1.421875 0.781250
v 5.441406 1.773438 0.781250
v 5.441406 2.125000 0.781250
v 5.441406 2.476562 0.781250
v 5.441406 2.828125 0.781250
v 5.441406 3.179688 0.781250
v 5.441406 3.531250 0.781250
v 5.441406 3.921875 0.781250
v 6.027344 -3.890625 0.781250
v 6.027344 -3.539062 0.781250
v 6.027344 -3.187500 0.781250
v 6.027344 -2.835938 0.781250
v 6.027344 -2.484375 0.781250
v 6.027344 -2.132812 0.781250
v 6.027344 -1.781250 0.781250
v 6.027344 -1.429688 0.781250
v 6.027344 -1.078125 0.781250
v 6.027344 -0.726562 0.781250
v 6.027344 -0.375000 0.781250
v 6.027344 0.015625 0.781250
v 6.027344 0.367188 0.781250
v 6.027344 0.718750 0.781250
v 6.027344 1.070312 0.781250
v 6.027344 1.421875 0.781250
v 6.027344 1.773438 0.781250
v 6.027344 2.125000 0.781250
v 6.027344 2.476562 0.781250
v 6.027344 2.828125 0.781250
v 6.027344 3.179688 0.781250
v 6.027344 3.531250 0.781250
v 6.027344 3.921875 0.781250
v 6.613281 -3.890625 0.781250
v 6.613281 -3.539062 0.781250
v 6.613281 -3.187500 0.781250
v 6.613281 -2.835938 0.781250
v 6.613281 -2.484375 0.781250
v 6.613281 -2.132812 0.781250
v 6.613281 -1.781250 0.781250
v 6.613281 -1.429688 0.781250
v 6.613281 -1.078125 0.781250
v 6.613281 -0.726562 0.781250
v 6.613281 -0.375000 0.781250
v 6.613281 0.015625 0.781250
v 6.613281 0.367188 0.781250
v 6.613281 0.718750 0.781250
v 6.613281 1.070312 0.781250
v 6.613281 1.421875 0.781250
v 6.613281 1.773438 0.781250
v 6.613281 2.125000 0.781250
v 6.613281 2.476562 0.781250
v 6.613281 2.828125 0.781250
v 6.613281 3.179688 0.781250
v 6.613281 3.531250 0.781250
v 6.613281 3.921875 0.781250
f 2 25 1
f 1 25 24
f 25 48 24
f 24 48 47
f 48 71 47
f 47 71 70
f 71 94 70
f 70 94 93
f 94 117 93
f 93 117 116
f 117 140 116
f 116 140 139
f 140 163 139
f 139 163 162
f 163 186 162
f 162 186 185
f 186 209 185
f 185 209 208
f 209 232 208
f 208 232 231
f 232 255 231
f 231 255 254
f 255 278 254
f 254 278 277
f 278 301 277
f 277 301 300
f 301 324 300
f 300 324 323
f 324 347 323
f 323 347 346
f 347 370 346
f 346 370 369
f 370 393 369
f 369 393 392
f 393 416 392
f 392 416 415
f 416 439 415
f 415 439 438
f 439 462 438
f 438 462 461
f 462 485 461
f 461 485 484
f 485 508 484
f 484 508 507
f 3 26 2
f 2 26 25
f 26 49 25
f 25 49 48
f 49 72 48
f 48 72 71
f 72 95 71
f 71 95 94
f 95 118 94
f 94 118 117
f 118 141 117
f 117 141 140
f 141 164 140
f 140 164 163
f 164 187 163
f 163 187 186
f 187 210 186
f 186 210 209
f 210 233 209
f 209 233 232
f 233 256 232
f 232 256 255
f 256 279 255
f 255 279 278
f 279 302 278
f 278 302 301
f 302 325 301
f 301 325 324
f 325 348 324
f 324 348 347
f 348 371 347
f 347 371 370
f 371 394 370
f 370 394 393
f 394 417 393
f 393 417 416
f 417 440 416
f 416 440 439
f 440 463 439
f 439 463 462
f 463 486 462
f 462 486 485
f 486 509 485
f 485 509 508
f 4 27 3
f 3 27 26
f 27 50 26
f 26 50 49
f 50 73 49
f 49 73 72
f 73 96 72
f 72 96 95
f 96 119 95
f 95 119 118
f 119 142 118
f 118 142 141
f 142 165 141
f 141 165 164
f 165 188 164
f 164 188 187
f 188 211 187
f 187 211 210
f 211 234 210
f 210 234 233
f 234 257 233
f 233 257 256
f 257 280 256
f 256 280 279
f 280 303 279
f 279 303 302
f 303 326 302
f 302 326 325
f 326 349 325
f 325 349 348
f 349 372 348
f 348 372 371
f 372 395 371
f 371 395 394
f 395 418 394
f 394 418 417
f 418 441 417
f 417 441 440
f 441 464 440
f 440 464 463
f 464 487 463
f 463 487 486
f 487 510 486
f 486 510 509
f 5 28 4
f 4 28 27
f 28 51 27
f 27 51 50
f 51 74 50
f 50 74 73
f 74 97 73
f 73 97 96
f 97 120 96
f 96 120 119
f 120 143 119
f 119 143 142
f 143 166 142
f 142 166 165
f 166 189 165
f 165 189 188
f 189 212 188
f 188 212 211
f 212 235 211
f 211 235 234
f 235 258 234
f 234 258 257
f 258 281 257
f 257 281 280
f 281 304 280
f 280 304 303
f 304 327 303
f 303 327 326
f 327 350 326
f 326 350 349
f 350 373 349
f 349 373 372
f 373 396 372
f 372 396 395
f 396 419 395
f 395 419 418
f 419 442 418
f 418 442 441
f 442 465 441
f 441 465 464
f 465 488 464
f 464 488 487
f 488 511 487
f 487 511 510
f 6 29 5
f 5 29 28
f 29 52 28
f 28 52 51
f 52 75 51
f 51 75 74
f 75 98 74
f 74 98 97
f 98 121 97
f 97 121 120
f 121 144 120
f 120 144 143
f 144 167 143
f 143 167 166
f 167 190 166
f 166 190 189
f 190 213 189
f 189 213 212
f 213 236 212
f 212 236 235
f 236 259 235
f 235 259 258
f 259 282 258
f 258 282 281
f 282 305 281
f 281 305 304
f 305 328 304
f 304 328 327
f 328 351 327
f 327 351 350
f 351 374 350
f 350 374 373
f 374 397 373
f 373 397 396
f 397 420 396
f 396 420 419
f 420 443 419
f 419 443 442
f 443 466 442
f 442 466 465
f 466 489 465
f 465 489 488
f 489 512 488
f 488 512 511
f 7 30 6
f 6 30 29
f 30 53 29
f 29 53 52
f 53 76 52
f 52 76 75
f 76 99 75
f 75 99 98
f 99 122 98
f 98 122 121
f 122 145 121
f 121 145 144
f 145 168 144
f 144 168 167
f 168 191 167
f 167 191 190
f 191 214 190
f 190 214 213
f 214 237 213
f 213 237 236
f 237 260 236
f 236 260 259
f 260 283 259
f 259 283 282
f 283 306 282
f 282 306 305
f 306 329 305
f 305 329 328
f 329 352 328
f 328 352 351
f 352 375 351
f 351 375 374
f 375 398 374
f 374 398 397
f 398 421 397
f 397 421 420
f 421 444 420
f 420 444 443
f 444 467 443
f 443 467 466
f 467 490 466
f 466 490 489
f 490 513 489
f 489 513 512
f 8 31 7
f 7 31 30
f 31 54 30
f 30 54 53
f 54 77 53
f 53 77 76
f 77 100 76
f 76 100 99
f 100 123 99
f 99 123 122
f 123 146 122
f 122 146 145
f 146 169 145
f 145 169 168
f 169 192 168
f 168 192 191
f 192 215 191
f 191 215 214
f 215 238 214
f 214 238 237
f 238 261 237
f 237 261 260
f 261 284 260
f 260 284 283
f 284 307 283
f 283 307 306
f 307 330 306
f 306 330 329
f 330 353 329
f 329 353 352
f 353 376 352
f 352 376 375
f 376 399 375
f 375 399 398
f 399 422 398
f 398 422 421
f 422 445 421
f 421 445 444
f 445 468 444
f 444 468 467
f 468 491 467
f 467 491 490
f 491 514 490
f 490 514 513
f 9 32 8
f 8 32 31
f 32 55 31
f 31 55 54
f 55 78 54
f 54 78 77
f 78 101 77
f 77 101 100
f 101 124 100
f 100 124 123
f 124 147 123
f 123 147 146
f 147 170 146
f 146 170 169
f 170 193 169
f 169 193 192
f 193 216 192
f 192 216 215
f 216 239 215
f 215 239 238
f 239 262 238
f 238 262 261
f 262 285 261
f 261 285 284
f 285 308 284
f 284 308 307
f 308 331 307
f 307 331 330
f 331 354 330
f 330 354 353
f 354 377 353
f 353 377 376
f 377 400 376
f 376 400 399
f 400 423 399
f 399 423 422
f 423 446 422
f 422 446 445
f 446 469 445
f 445 469 468
f 469 492 468
f 468 492 491
f 492 515 491
f 491 515 514
f 10 33 9
f 9 33 32
f 33 56 32
f 32 56 55
f 56 79 55
f 55 79 78
f 79 102 78
f 78 102 101
f 102 125 101
f 101 125 124
f 125 148 124
f 124 148 147
f 148 171 147
f 147 171 170
f 171 194 170
f 170 194 193
f 194 217 193
f 193 217 216
f 217 240 216
f 216 240 239
f 240 263 239
f 239 263 262
f 263 286 262
f 262 286 285
f 286 309 285
f 285 309 308
f 309 332 308
f 308 332 331
f 332 355 331
f 331 355 354
f 355 378 354
f 354 378 377
f 378 401 377
f 377 401 400
f 401 424 400
f 400 424 423
f 424 447 423
f 423 447 446
f 447 470 446
f 446 470 469
f 470 493 469
f 469 493 492
f 493 516 492
f 492 516 515
f 11 34 10
f 10 34 33
f 34 57 33
f 33 57 56
f 57 80 56
f 56 80 79
f 80 103 79
f 79 103 102
f 103 126 102
f 102 126 125
f 126 149 125
f 125 149 148
f 149 172 148
f 148 172 171
f 172 195 171
f 171 195 194
f 195 218 194
f 194 218 217
f 218 241 217
f 217 241 240
f 241 264 240
f 240 264 263
f 264 287 263
f 263 287 286
f 287 310 286
f 286 310 309
f 310 333 309
f 309 333 332
f 333 356 332
f 332 356 355
f 356 379 355
f 355 379 378
f 379 402 378
f 378 402 401
f 402 425 401
f 401 425 424
f 425 448 424
f 424 448 447
f 448 471 447
f 447 471 470
f 471 494 470
f 470 494 493
f 494 517 493
f 493 517 516
f 12 35 11
f 11 35 34
f 35 58 34
f 34 58 57
f 58 81 57
f 57 81 80
f 81 104 80
f 80 104 103
f 104 127 103
f 103 127 126
f 127 150 126
f 126 150 149
f 150 173 149
f 149 173 172
f 173 196 172
f 172 196 195
f 196 219 195
f 195 219 218
f 219 242 218
f 218 242 241
f 242 265 241
f 241 265 264
f 265 288 264
f 264 288 287
f 288 311 287
f 287 311 310
f 311 334 310
f 310 334 333
f 334 357 333
f 333 357 356
f 357 380 356
f 356 380 379
f 380 403 379
f 379 403 402
f 403 426 402
f 402 426 425
f 426 449 425
f 425 449 448
f 449 472 448
f 448 472 471
f 472 495 471
f 471 495 494
f 495 518 494
f 494 518 517
f 13 36 12
f 12 36 35
f 36 59 35
f 35 59 58
f 59 82 58
f 58 82 81
f 82 105 81
f 81 105 104
f 105 128 104
f 104 128 127
f 128 151 127
f 127 151 150
f 151 174 150
f 150 174 173
f 174 197 173
f 173 197 196
f 197 220 196
f 196 220 219
f 220 243 219
f 219 243 242
f 243 266 242
f 242 266 265
f 266 289 265
f 265 289 288
f 289 312 288
f 288 312 311
f 312 335 311
f 311 335 334
f 335 358 334
f 334 358 357
f 358 381 357
f 357 381 380
f 381 404 380
f 380 404 403
f 404 427 403
f 403 427 426
f 427 450 426
f 426 450 449
f 450 473 449
f 449 473 472
f 473 496 472
f 472 496 495
f 496 519 495
f 495 519 518
f 14 37 13
f 13 37 36
f 37 60 36
f 36 60 59
f 60 83 59
f 59 83 82
f 83 106 82
f 82 106 105
f 106 129 105
f 105 129 128
f 129 152 128
f 128 152 151
f 152 175 151
f 151 175 174
f 175 198 174
f 174 198 197
f 198 221 197
f 197 221 220
f 221 244 220
f 220 244 243
f 244 267 243
f 243 267 266
f 267 290 266
f 266 290 289
f 290 313 289
f 289 313 312
f 313 336 312
f 312 336 335
f 336 359 335
f 335 359 358
f 359 382 358
f 358 382 381
f 382 405 381
f 381 405 404
f 405 428 404
f 404 428 427
f 428 451 427
f 427 451 450
f 451 474 450
f 450 474 473
f 474 497 473
f 473 497 496
f 497 520 496
f 496 520 519
f 15 38 14
f 14 38 37
f 38 61 37
f 37 61 60
f 61 84 60
f 60 84 83
f 84 107 83
f 83 107 106
f 107 130 106
f 106 130 129
f 130 153 129
f 129 153 152
f 153 176 152
f 152 176 175
f 176 199 175
f 175 199 198
f 199 222 198
f 198 222 221
f 222 245 221
f 221 245 244
f 245 268 244
f 244 268 267
f 268 291 267
f 267 291 290
f 291 314 290
f 290 314 313
f 314 337 313
f 313 337 336
f 337 360 336
f 336 360 359
f 360 383 359
f 359 383 382
f 383 406 382
f 382 406 405
f 406 429 405
f 405 429 428
f 429 452 428
f 428 452 451
f 452 475 451
f 451 475 474
f 475 498 474
f 474 498 497
f 498 521 497
f 497 521 520
f 16 39 15
f 15 39 38
f 39 62 38
f 38 62 61
f 62 85 61
f 61 85 84
f 85 108 84
f 84 108 107
f 108 131 107
f 107 131 130
f 131 154 130
f 130 154 153
f 154 177 153
f 153 177 176
f 177 200 176
f 176 200 199
f 200 223 199
f 199 223 222
f 223 246 222
f 222 246 245
f 246 269 245
f 245 269 268
f 269 292 268
f 268 292 291
f 292 315 291
f 291 315 314
f 315 338 314
f 314 338 337
f 338 361 337
f 337 361 360
f 361 384 360
f 360 384 383
f 384 407 383
f 383 407 406
f 407 430 406
f 406 430 429
f 430 453 429
f 429 453 452
f 453 476 452
f 452 476 475
f 476 499 475
f 475 499 498
f 499 522 498
f 498 522 521
f 17 40 16
f 16 40 39
f 40 63 39
f 39 63 62
f 63 86 62
f 62 86 85
f 86 109 85
f 85 109 108
f 109 132 108
f 108 132 131
f 132 155 131
f 131 155 154
f 155 178 154
f 154 178 177
f 178 201 177
f 177 201 200
f 201 224 200
f 200 224 223
f 224 247 223
f 223 247 246
f 247 270 246
f 246 270 269
f 270 293 269
f 269 293 292
f 293 316 292
f 292 316 315
f 316 339 315
f 315 339 338
f 339 362 338
f 338 362 361
f 362 385 361
f 361 385 384
f 385 408 384
f 384 408 407
f 408 431 407
f 407 431 430
f 431 454 430
f 430 454 453
f 454 477 453
f 453 477 476
f 477 500 476
f 476 500 499
f 500 523 499
f 499 523 522
f 18 41 17
f 17 41 40
f 41 64 40
f 40 64 63
f 64 87 63
f 63 87 86
f 87 110 86
f 86 110 109
f 110 133 109
f 109 133 132
f 133 156 132
f 132 156 155
f 156 179 155
f 155 179 178
f 179 202 178
f 178 202 201
f 202 225 201
f 201 225 224
f 225 248 224
f 224 248 247
f 248 271 247
f 247 271 270
f 271 294 270
f 270 294 293
f 294 317 293
f 293 317 316
f 317 340 316
f 316 340 339
f 340 363 339
f 339 363 362
f 363 386 362
f 362 386 385
f 386 409 385
f 385 409 408
f 409 432 408
f 408 432 431
f 432 455 431
f 431 455 454
f 455 478 454
f 454 478 477
f 478 501 477
f 477 501 500
f 501 524 500
f 500 524 523
f 19 42 18
f 18 42 41
f 42 65 41
f 41 65 64
f 65 88 64
f 64 88 87
f 88 111 87
f 87 111 110
f 111 134 110
f 110 134 133
f 134 157 133
f 133 157 156
f 157 180 156
f 156 180 179
f 180 203 179
f 179 203 202
f 203 226 202
f 202 226 225
f 226 249 225
f 225 249 248
f 249 272 248
f 248 272 271
f 272 295 271
f 271 295 294
f 295 318 294
f 294 318 317
f 318 341 317
f 317 341 340
f 341 364 340
f 340 364 363
f 364 387 363
f 363 387 386
f 387 410 386
f 386 410 409
f 410 433 409
f 409 433 432
f 433 456 432
f 432 456 455
f 456 479 455
f 455 479 478
f 479 502 478
f 478 502 501
f 502 525 501
f 501 525 524
f 20 43 19
f 19 43 42
f 43 66 42
f 42 66 65
f 66 89 65
f 65 89 88
f 89 112 88
f 88 112 111
f 112 135 111
f 111 135 134
f 135 158 134
f 134 158 157
f 158 181 157
f 157 181 180
f 181 204 180
f 180 204 203
f 204 227 203
f 203 227 226
f 227 250 226
f 226 250 249
f 250 273 249
f 249 273 272
f 273 296 272
f 272 296 295
f 296 319 295
f 295 319 318
f 319 342 318
f 318 342 341
f 342 365 341
f 341 365 364
f 365 388 364
f 364 388 387
f 388 411 387
f 387 411 410
f 411 434 410
f 410 434 433
f 434 457 433
f 433 457 456
f 457 480 456
f 456 480 479
f 480 503 479
f 479 503 502
f 503 526 502
f 502 526 525
f 21 44 20
f 20 44 43
f 44 67 43
f 43 67 66
f 67 90 66
f 66 90 89
f 90 113 89
f 89 113 112
f 113 136 112
f 112 136 135
f 136 159 135
f 135 159 158
f 159 182 158
f 158 182 181
f 182 205 181
f 181 205 204
f 205 228 204
f 204 228 227
f 228 251 227
f 227 251 250
f 251 274 250
f 250 274 273
f 274 297 273
f 273 297 296
f 297 320 296
f 296 320 319
f 320 343 319
f 319 343 342
f 343 366 342
f 342 366 365
f 366 389 365
f 365 389 388
f 389 412 388
f 388 412 411
f 412 435 411
f 411 435 434
f 435 458 434
f 434 458 457
f 458 481 457
f 457 481 480
f 481 504 480
f 480 504 503
f 504 527 503
f 503 527 526
f 22 45 21
f 21 45 44
f 45 68 44
f 44 68 67
f 68 91 67
f 67 91 90
f 91 114 90
f 90 114 113
f 114 137 113
f 113 137 136
f 137 160 136
f 136 160 159
f 160 183 159
f 159 183 182
f 183 206 182
f 182 206 205
f 206 229 205
f 205 229 228
f 229 252 228
f 228 252 251
f 252 275 251
f 251 275 274
f 275 298 274
f 274 298 297
f 298 321 297
f 297 321 320
f 321 344 320
f 320 344 343
f 344 367 343
f 343 367 366
f 367 390 366
f 366 390 389
f 390 413 389
f 389 413 412
f 413 436 412
f 412 436 435
f 436 459 435
f 435 459 458
f 459 482 458
f 458 482 481
f 482 505 481
f 481 505 504
f 505 528 504
f 504 528 527
f 23 46 22
f 22 46 45
f 46 69 45
f 45 69 68
f 69 92 68
f 68 92 91
f 92 115 91
f 91 115 114
f 115 138 114
f 114 138 137
f 138 161 137
f 137 161 160
f 161 184 160
f 160 184 183
f 184 207 183
f 183 207 206
f 207 230 206
f 206 230 229
f 230 253 229
f 229 253 252
f 253 276 252
f 252 276 275
f 276 299 275
f 275 299 298
f 299 322 298
f 298 322 321
f 322 345 321
f 321 345 344
f 345 368 344
f 344 368 367
f 368 391 367
f 367 391 390
f 391 414 390
f 390 414 413
f 414 437 413
f 413 437 436
f 437 460 436
f 436 460 459
f 460 483 459
f 459 483 482
f 483 506 482
f 482 506 505
f 506 529 505
f 505 529 528
