# Fish swim-cycle pose 06 of 17. Scale 1/5840 to match runtime torus doubling.
# Coordinates rotated 90deg about Z so the animated (flap) axis aligns with
# the torus demo's swim rotation; winding preserved. Derived smooth normals.
o fish_06
v -0.01917808 -0.02654110 0.49914384
v -0.00633562 0.00856164 0.31729452
v -0.00633562 -0.04845890 -0.05051370
v 0.01883562 -0.04777397 0.09880137
v -0.03184932 0.00000000 -0.26215753
v 0.05736301 0.00941781 -0.19280822
v 0.14674658 0.04965753 0.11558219
v 0.01917808 0.01883562 0.43578767
v 0.12123288 -0.09126712 0.68493151
v -0.10839041 -0.06780822 0.64931507
v -0.12123288 0.01386986 -0.15719178
v -0.14674658 0.05239726 0.16301370
v -0.08287671 0.01900685 0.44777397
v -0.00633562 0.10445205 -0.05051370
v -0.00633562 0.08510274 0.31729452
v -0.01917808 0.02448630 0.49914384
v 0.01883562 0.14434932 0.09880137
vt 0 0
vn -0.03161535 -0.94161278 -0.33521014
vn 0.00911214 -0.99632663 0.08514815
vn -0.02270362 -0.99840880 -0.05161802
vn 0.01553179 -0.98807633 0.15317943
vn -0.19557365 0.00000000 -0.98068902
vn 0.90404635 0.00000000 -0.42743443
vn 0.99913659 0.00000000 0.04154599
vn 0.99182536 0.00000000 0.12760274
vn 0.85846329 0.00000000 0.51287502
vn -0.75794166 0.00000000 0.65232235
vn -0.96537133 0.00000000 -0.26087965
vn -0.99505097 0.00000000 0.09936582
vn -0.99434645 0.00000000 0.10618443
vn -0.03419210 0.95441398 -0.29652125
vn 0.05167681 0.95802574 0.28198614
vn 0.04033891 0.91234394 0.40743259
vn 0.01780928 0.99846073 0.05252610
f 4/1/4 2/1/2 12/1/12
f 3/1/3 4/1/4 12/1/12
f 7/1/7 2/1/2 4/1/4
f 7/1/7 4/1/4 3/1/3
f 13/1/13 1/1/1 10/1/10
f 13/1/13 2/1/2 1/1/1
f 12/1/12 2/1/2 13/1/13
f 11/1/11 3/1/3 12/1/12
f 5/1/5 3/1/3 11/1/11
f 1/1/1 9/1/9 10/1/10
f 8/1/8 9/1/9 1/1/1
f 8/1/8 1/1/1 2/1/2
f 7/1/7 8/1/8 2/1/2
f 6/1/6 7/1/7 3/1/3
f 5/1/5 6/1/6 3/1/3
f 17/1/17 12/1/12 15/1/15
f 14/1/14 12/1/12 17/1/17
f 7/1/7 17/1/17 15/1/15
f 7/1/7 14/1/14 17/1/17
f 13/1/13 10/1/10 16/1/16
f 13/1/13 16/1/16 15/1/15
f 12/1/12 13/1/13 15/1/15
f 11/1/11 12/1/12 14/1/14
f 5/1/5 11/1/11 14/1/14
f 16/1/16 10/1/10 9/1/9
f 8/1/8 16/1/16 9/1/9
f 8/1/8 15/1/15 16/1/16
f 7/1/7 15/1/15 8/1/8
f 6/1/6 14/1/14 7/1/7
f 5/1/5 14/1/14 6/1/6
