# Fish swim-cycle pose 01 of 17. Scale 1/5840 to match runtime torus doubling.
# Coordinates rotated 90deg about Z so the animated (flap) axis aligns with
# the torus demo's swim rotation; winding preserved. Derived smooth normals.
o fish_01
v -0.01917808 -0.16917808 0.49914384
v -0.00633562 -0.13630137 0.31729452
v -0.00633562 -0.07140411 -0.05051370
v 0.01883562 -0.12277397 0.09880137
v -0.03184932 0.00000000 -0.26215753
v 0.05736301 0.00941781 -0.19280822
v 0.14674658 -0.03133562 0.11558219
v 0.01917808 -0.13150685 0.43578767
v 0.12123288 -0.14126712 0.68493151
v -0.10839041 -0.14794521 0.64931507
v -0.12123288 0.01301370 -0.15719178
v -0.14674658 -0.04503425 0.16301370
v -0.08287671 -0.13339041 0.44777397
v -0.00633562 0.08167808 -0.05051370
v -0.00633562 -0.05976027 0.31729452
v -0.01917808 -0.11815068 0.49914384
v 0.01883562 0.06934932 0.09880137
vt 0 0
vn 0.02891649 -0.99855132 -0.04537720
vn 0.02466943 -0.99316592 -0.11407395
vn -0.03327039 -0.95721841 -0.28744738
vn 0.01788032 -0.98463074 -0.17373140
vn -0.19557365 0.00000000 -0.98068902
vn 0.90404635 0.00000000 -0.42743443
vn 0.99913526 0.00000000 0.04157795
vn 0.99182536 0.00000000 0.12760274
vn 0.85846329 0.00000000 0.51287502
vn -0.75794166 0.00000000 0.65232235
vn -0.96537133 0.00000000 -0.26087965
vn -0.99503683 0.00000000 0.09950727
vn -0.99434645 0.00000000 0.10618443
vn -0.02375521 0.99779632 -0.06195311
vn 0.03426236 0.89580664 0.44312139
vn -0.01814945 0.99071181 0.13476170
vn 0.01443935 0.93327070 0.35888342
f 4/1/4 2/1/2 12/1/12
f 3/1/3 4/1/4 12/1/12
f 7/1/7 2/1/2 4/1/4
f 7/1/7 4/1/4 3/1/3
f 13/1/13 1/1/1 10/1/10
f 13/1/13 2/1/2 1/1/1
f 12/1/12 2/1/2 13/1/13
f 11/1/11 3/1/3 12/1/12
f 5/1/5 3/1/3 11/1/11
f 1/1/1 9/1/9 10/1/10
f 8/1/8 9/1/9 1/1/1
f 8/1/8 1/1/1 2/1/2
f 7/1/7 8/1/8 2/1/2
f 6/1/6 7/1/7 3/1/3
f 5/1/5 6/1/6 3/1/3
f 17/1/17 12/1/12 15/1/15
f 14/1/14 12/1/12 17/1/17
f 7/1/7 17/1/17 15/1/15
f 7/1/7 14/1/14 17/1/17
f 13/1/13 10/1/10 16/1/16
f 13/1/13 16/1/16 15/1/15
f 12/1/12 13/1/13 15/1/15
f 11/1/11 12/1/12 14/1/14
f 5/1/5 11/1/11 14/1/14
f 16/1/16 10/1/10 9/1/9
f 8/1/8 16/1/16 9/1/9
f 8/1/8 15/1/15 16/1/16
f 7/1/7 15/1/15 8/1/8
f 6/1/6 14/1/14 7/1/7
f 5/1/5 14/1/14 6/1/6
