# Fish swim-cycle pose 11 of 17. Scale 1/5840 to match runtime torus doubling.
# Coordinates rotated 90deg about Z so the animated (flap) axis aligns with
# the torus demo's swim rotation; winding preserved. Derived smooth normals.
o fish_11
v -0.01917808 0.05839041 0.49914384
v -0.00633562 -0.00924658 0.31729452
v -0.00633562 -0.08321918 -0.05051370
v 0.01883562 -0.10719178 0.09880137
v -0.03184932 0.00000000 -0.26215753
v 0.05736301 0.00941781 -0.19280822
v 0.14674658 -0.01027397 0.11558219
v 0.01917808 0.06575342 0.43578767
v 0.12123288 0.12756849 0.68493151
v -0.10839041 0.12277397 0.64931507
v -0.12123288 0.01130137 -0.15719178
v -0.14674658 -0.00410959 0.16301370
v -0.08287671 0.07037671 0.44777397
v -0.00633562 0.06986301 -0.05051370
v -0.00633562 0.06729452 0.31729452
v -0.01917808 0.10941781 0.49914384
v 0.01883562 0.08476027 0.09880137
vt 0 0
vn -0.01063007 -0.95518667 0.29581317
vn 0.03627188 -0.91859542 0.39353119
vn -0.05179062 -0.97375864 -0.22161191
vn 0.01127267 -0.98030717 0.19715675
vn -0.19557365 0.00000000 -0.98068902
vn 0.90404635 0.00000000 -0.42743443
vn 0.99913449 0.00000000 0.04159649
vn 0.99182536 0.00000000 0.12760274
vn 0.85846329 0.00000000 0.51287502
vn -0.75794166 0.00000000 0.65232235
vn -0.96537133 0.00000000 -0.26087965
vn -0.99503229 0.00000000 0.09955273
vn -0.99434645 0.00000000 0.10618443
vn -0.00527895 0.99106493 -0.13327582
vn 0.02350549 0.99852690 -0.04890318
vn 0.02125839 0.97660593 -0.21398352
vn 0.02212611 0.99973081 0.00698136
f 4/1/4 2/1/2 12/1/12
f 3/1/3 4/1/4 12/1/12
f 7/1/7 2/1/2 4/1/4
f 7/1/7 4/1/4 3/1/3
f 13/1/13 1/1/1 10/1/10
f 13/1/13 2/1/2 1/1/1
f 12/1/12 2/1/2 13/1/13
f 11/1/11 3/1/3 12/1/12
f 5/1/5 3/1/3 11/1/11
f 1/1/1 9/1/9 10/1/10
f 8/1/8 9/1/9 1/1/1
f 8/1/8 1/1/1 2/1/2
f 7/1/7 8/1/8 2/1/2
f 6/1/6 7/1/7 3/1/3
f 5/1/5 6/1/6 3/1/3
f 17/1/17 12/1/12 15/1/15
f 14/1/14 12/1/12 17/1/17
f 7/1/7 17/1/17 15/1/15
f 7/1/7 14/1/14 17/1/17
f 13/1/13 10/1/10 16/1/16
f 13/1/13 16/1/16 15/1/15
f 12/1/12 13/1/13 15/1/15
f 11/1/11 12/1/12 14/1/14
f 5/1/5 11/1/11 14/1/14
f 16/1/16 10/1/10 9/1/9
f 8/1/8 16/1/16 9/1/9
f 8/1/8 15/1/15 16/1/16
f 7/1/7 15/1/15 8/1/8
f 6/1/6 14/1/14 7/1/7
f 5/1/5 14/1/14 6/1/6
