# Fish swim-cycle pose 04 of 17. Scale 1/5840 to match runtime torus doubling.
# Coordinates rotated 90deg about Z so the animated (flap) axis aligns with
# the torus demo's swim rotation; winding preserved. Derived smooth normals.
o fish_04
v -0.01917808 -0.11746575 0.49914384
v -0.00633562 -0.05462329 0.31729452
v -0.00633562 -0.05068493 -0.05051370
v 0.01883562 -0.06917808 0.09880137
v -0.03184932 0.00000000 -0.26215753
v 0.05736301 0.00941781 -0.19280822
v 0.14674658 0.02602740 0.11558219
v 0.01917808 -0.06078767 0.43578767
v 0.12123288 -0.18013699 0.68493151
v -0.10839041 -0.16232877 0.64931507
v -0.12123288 0.01404110 -0.15719178
v -0.14674658 0.02106164 0.16301370
v -0.08287671 -0.06660959 0.44777397
v -0.00633562 0.10239726 -0.05051370
v -0.00633562 0.02191781 0.31729452
v -0.01917808 -0.06643836 0.49914384
v 0.01883562 0.12294521 0.09880137
vt 0 0
vn 0.00487990 -0.92285970 -0.38510539
vn 0.01749506 -0.99562739 -0.09176064
vn -0.02228165 -0.99187718 -0.12523257
vn 0.01518640 -0.99982736 -0.01070579
vn -0.19557365 0.00000000 -0.98068902
vn 0.90404635 0.00000000 -0.42743443
vn 0.99913526 0.00000000 0.04157795
vn 0.99182536 0.00000000 0.12760274
vn 0.85846329 0.00000000 0.51287502
vn -0.75794166 0.00000000 0.65232235
vn -0.96537133 0.00000000 -0.26087965
vn -0.99503683 0.00000000 0.09950727
vn -0.99434645 0.00000000 0.10618443
vn -0.03511306 0.97263616 -0.22966492
vn 0.04112592 0.90357279 0.42645618
vn 0.00477093 0.89158985 0.45281870
vn 0.01801301 0.97672965 0.21371645
f 4/1/4 2/1/2 12/1/12
f 3/1/3 4/1/4 12/1/12
f 7/1/7 2/1/2 4/1/4
f 7/1/7 4/1/4 3/1/3
f 13/1/13 1/1/1 10/1/10
f 13/1/13 2/1/2 1/1/1
f 12/1/12 2/1/2 13/1/13
f 11/1/11 3/1/3 12/1/12
f 5/1/5 3/1/3 11/1/11
f 1/1/1 9/1/9 10/1/10
f 8/1/8 9/1/9 1/1/1
f 8/1/8 1/1/1 2/1/2
f 7/1/7 8/1/8 2/1/2
f 6/1/6 7/1/7 3/1/3
f 5/1/5 6/1/6 3/1/3
f 17/1/17 12/1/12 15/1/15
f 14/1/14 12/1/12 17/1/17
f 7/1/7 17/1/17 15/1/15
f 7/1/7 14/1/14 17/1/17
f 13/1/13 10/1/10 16/1/16
f 13/1/13 16/1/16 15/1/15
f 12/1/12 13/1/13 15/1/15
f 11/1/11 12/1/12 14/1/14
f 5/1/5 11/1/11 14/1/14
f 16/1/16 10/1/10 9/1/9
f 8/1/8 16/1/16 9/1/9
f 8/1/8 15/1/15 16/1/16
f 7/1/7 15/1/15 8/1/8
f 6/1/6 14/1/14 7/1/7
f 5/1/5 14/1/14 6/1/6
