# Fish swim-cycle pose 09 of 17. Scale 1/5840 to match runtime torus doubling.
# Coordinates rotated 90deg about Z so the animated (flap) axis aligns with
# the torus demo's swim rotation; winding preserved. Derived smooth normals.
o fish_09
v -0.01917808 0.07414384 0.49914384
v -0.00633562 0.03544521 0.31729452
v -0.00633562 -0.06678082 -0.05051370
v 0.01883562 -0.06917808 0.09880137
v -0.03184932 0.00000000 -0.26215753
v 0.05736301 0.00941781 -0.19280822
v 0.14674658 0.02893836 0.11558219
v 0.01917808 0.09400685 0.43578767
v 0.12123288 0.07876712 0.68493151
v -0.10839041 0.08921233 0.64931507
v -0.12123288 0.01232877 -0.15719178
v -0.14674658 0.03835616 0.16301370
v -0.08287671 0.09554795 0.44777397
v -0.00633562 0.08630137 -0.05051370
v -0.00633562 0.11198630 0.31729452
v -0.01917808 0.12517123 0.49914384
v 0.01883562 0.12294521 0.09880137
vt 0 0
vn -0.02232510 -0.99918729 0.03356103
vn 0.03100352 -0.93308699 0.35831195
vn -0.04051069 -0.99332741 -0.10797935
vn 0.01235870 -0.96340576 0.26776222
vn -0.19557365 0.00000000 -0.98068902
vn 0.90404635 0.00000000 -0.42743443
vn 0.99913526 0.00000000 0.04157795
vn 0.99182536 0.00000000 0.12760274
vn 0.85846329 0.00000000 0.51287502
vn -0.75794166 0.00000000 0.65232235
vn -0.96537133 0.00000000 -0.26087965
vn -0.99503683 0.00000000 0.09950727
vn -0.99434645 0.00000000 0.10618443
vn -0.01723370 0.96915351 -0.24585457
vn 0.02984628 0.99954567 -0.00420214
vn 0.03291082 0.99783897 0.05687060
vn 0.02074804 0.99735586 -0.06964776
f 4/1/4 2/1/2 12/1/12
f 3/1/3 4/1/4 12/1/12
f 7/1/7 2/1/2 4/1/4
f 7/1/7 4/1/4 3/1/3
f 13/1/13 1/1/1 10/1/10
f 13/1/13 2/1/2 1/1/1
f 12/1/12 2/1/2 13/1/13
f 11/1/11 3/1/3 12/1/12
f 5/1/5 3/1/3 11/1/11
f 1/1/1 9/1/9 10/1/10
f 8/1/8 9/1/9 1/1/1
f 8/1/8 1/1/1 2/1/2
f 7/1/7 8/1/8 2/1/2
f 6/1/6 7/1/7 3/1/3
f 5/1/5 6/1/6 3/1/3
f 17/1/17 12/1/12 15/1/15
f 14/1/14 12/1/12 17/1/17
f 7/1/7 17/1/17 15/1/15
f 7/1/7 14/1/14 17/1/17
f 13/1/13 10/1/10 16/1/16
f 13/1/13 16/1/16 15/1/15
f 12/1/12 13/1/13 15/1/15
f 11/1/11 12/1/12 14/1/14
f 5/1/5 11/1/11 14/1/14
f 16/1/16 10/1/10 9/1/9
f 8/1/8 16/1/16 9/1/9
f 8/1/8 15/1/15 16/1/16
f 7/1/7 15/1/15 8/1/8
f 6/1/6 14/1/14 7/1/7
f 5/1/5 14/1/14 6/1/6
