# Fish swim-cycle pose 14 of 17. Scale 1/5840 to match runtime torus doubling.
# Coordinates rotated 90deg about Z so the animated (flap) axis aligns with
# the torus demo's swim rotation; winding preserved. Derived smooth normals.
o fish_14
v -0.01917808 -0.06763699 0.49914384
v -0.00633562 -0.11061644 0.31729452
v -0.00633562 -0.09023973 -0.05051370
v 0.01883562 -0.14571918 0.09880137
v -0.03184932 0.00000000 -0.26215753
v 0.05736301 0.00941781 -0.19280822
v 0.14674658 -0.05325342 0.11558219
v 0.01917808 -0.05633562 0.43578767
v 0.12123288 0.03373288 0.68493151
v -0.10839041 0.01489726 0.64931507
v -0.12123288 0.01147260 -0.15719178
v -0.14674658 -0.06147260 0.16301370
v -0.08287671 -0.05770548 0.44777397
v -0.00633562 0.06284247 -0.05051370
v -0.00633562 -0.03424658 0.31729452
v -0.01917808 -0.01660959 0.49914384
v 0.01883562 0.04640411 0.09880137
vt 0 0
vn 0.03745863 -0.93790422 0.34486594
vn 0.05385526 -0.98123311 0.18515181
vn -0.04842582 -0.93898480 -0.34053265
vn 0.01901879 -0.99828833 -0.05530555
vn -0.19557365 0.00000000 -0.98068902
vn 0.90404635 0.00000000 -0.42743443
vn 0.99913454 0.00000000 0.04159535
vn 0.99187742 0.00000000 0.12719739
vn 0.85846329 0.00000000 0.51287502
vn -0.75794166 0.00000000 0.65232235
vn -0.96537133 0.00000000 -0.26087965
vn -0.99501994 0.00000000 0.09967610
vn -0.99438506 0.00000000 0.10582224
vn -0.00699234 0.99997552 0.00027605
vn 0.00805534 0.98219209 0.18770671
vn -0.02824589 0.96324734 -0.26712680
vn 0.01416826 0.96678480 0.25519878
f 4/1/4 2/1/2 12/1/12
f 3/1/3 4/1/4 12/1/12
f 7/1/7 2/1/2 4/1/4
f 7/1/7 4/1/4 3/1/3
f 13/1/13 1/1/1 10/1/10
f 13/1/13 2/1/2 1/1/1
f 12/1/12 2/1/2 13/1/13
f 11/1/11 3/1/3 12/1/12
f 5/1/5 3/1/3 11/1/11
f 1/1/1 9/1/9 10/1/10
f 8/1/8 9/1/9 1/1/1
f 8/1/8 1/1/1 2/1/2
f 7/1/7 8/1/8 2/1/2
f 6/1/6 7/1/7 3/1/3
f 5/1/5 6/1/6 3/1/3
f 17/1/17 12/1/12 15/1/15
f 14/1/14 12/1/12 17/1/17
f 7/1/7 17/1/17 15/1/15
f 7/1/7 14/1/14 17/1/17
f 13/1/13 10/1/10 16/1/16
f 13/1/13 16/1/16 15/1/15
f 12/1/12 13/1/13 15/1/15
f 11/1/11 12/1/12 14/1/14
f 5/1/5 11/1/11 14/1/14
f 16/1/16 10/1/10 9/1/9
f 8/1/8 16/1/16 9/1/9
f 8/1/8 15/1/15 16/1/16
f 7/1/7 15/1/15 8/1/8
f 6/1/6 14/1/14 7/1/7
f 5/1/5 14/1/14 6/1/6
