#
# shadow_sphere.obj - Globe
#
# Geometry:   unit sphere centred on the origin, its poles on the y axis:
#             16 segments round and 7 rings between the poles.
# Components: 114 vertices, 114 UV coordinates, 114 vertex normals, smooth
#             and close to radial, and 224 triangular faces.
# Used by:    shadow through shadow3, textured with the planet map.
#
o shadow_sphere
v 0.000000 1.000000 0.000000
v 0.000000 -1.000000 0.000000
v -0.382683 0.923880 0.000000
v -0.353553 0.923880 -0.146447
v -0.270598 0.923880 -0.270598
v -0.146447 0.923880 -0.353553
v 0.000000 0.923880 -0.382683
v 0.146447 0.923880 -0.353553
v 0.270598 0.923880 -0.270598
v 0.353553 0.923880 -0.146447
v 0.382683 0.923880 0.000000
v 0.353553 0.923880 0.146447
v 0.270598 0.923880 0.270598
v 0.146447 0.923880 0.353553
v 0.000000 0.923880 0.382683
v -0.146447 0.923880 0.353553
v -0.270598 0.923880 0.270598
v -0.353553 0.923880 0.146447
v -0.707107 0.707107 0.000000
v -0.653282 0.707107 -0.270598
v -0.500000 0.707107 -0.500000
v -0.270598 0.707107 -0.653282
v 0.000000 0.707107 -0.707107
v 0.270598 0.707107 -0.653282
v 0.500000 0.707107 -0.500000
v 0.653282 0.707107 -0.270598
v 0.707107 0.707107 0.000000
v 0.653281 0.707107 0.270598
v 0.500000 0.707107 0.500000
v 0.270598 0.707107 0.653282
v 0.000000 0.707107 0.707107
v -0.270598 0.707107 0.653281
v -0.500000 0.707107 0.500000
v -0.653282 0.707107 0.270598
v -0.923880 0.382683 0.000000
v -0.853553 0.382683 -0.353553
v -0.653281 0.382683 -0.653282
v -0.353553 0.382683 -0.853553
v 0.000000 0.382683 -0.923880
v 0.353553 0.382683 -0.853553
v 0.653282 0.382683 -0.653281
v 0.853553 0.382683 -0.353553
v 0.923880 0.382683 0.000000
v 0.853553 0.382683 0.353553
v 0.653281 0.382683 0.653282
v 0.353553 0.382683 0.853553
v 0.000000 0.382683 0.923880
v -0.353554 0.382683 0.853553
v -0.653282 0.382683 0.653281
v -0.853553 0.382683 0.353553
v -1.000000 0.000000 0.000000
v -0.923880 0.000000 -0.382683
v -0.707107 0.000000 -0.707107
v -0.382683 0.000000 -0.923880
v 0.000000 0.000000 -1.000000
v 0.382683 0.000000 -0.923880
v 0.707107 0.000000 -0.707107
v 0.923880 0.000000 -0.382683
v 1.000000 0.000000 0.000000
v 0.923880 0.000000 0.382684
v 0.707107 0.000000 0.707107
v 0.382683 0.000000 0.923880
v 0.000000 0.000000 1.000000
v -0.382684 0.000000 0.923880
v -0.707107 0.000000 0.707107
v -0.923880 0.000000 0.382683
v -0.923880 -0.382684 0.000000
v -0.853553 -0.382684 -0.353553
v -0.653281 -0.382684 -0.653282
v -0.353553 -0.382684 -0.853553
v 0.000000 -0.382684 -0.923880
v 0.353553 -0.382684 -0.853553
v 0.653282 -0.382684 -0.653281
v 0.853553 -0.382684 -0.353553
v 0.923880 -0.382684 0.000000
v 0.853553 -0.382684 0.353553
v 0.653281 -0.382684 0.653282
v 0.353553 -0.382684 0.853553
v 0.000000 -0.382684 0.923880
v -0.353554 -0.382684 0.853553
v -0.653282 -0.382684 0.653281
v -0.853553 -0.382684 0.353553
v -0.707107 -0.707107 0.000000
v -0.653281 -0.707107 -0.270598
v -0.500000 -0.707107 -0.500000
v -0.270598 -0.707107 -0.653281
v 0.000000 -0.707107 -0.707107
v 0.270598 -0.707107 -0.653281
v 0.500000 -0.707107 -0.500000
v 0.653281 -0.707107 -0.270598
v 0.707107 -0.707107 0.000000
v 0.653281 -0.707107 0.270598
v 0.500000 -0.707107 0.500000
v 0.270598 -0.707107 0.653281
v 0.000000 -0.707107 0.707107
v -0.270598 -0.707107 0.653281
v -0.500000 -0.707107 0.500000
v -0.653282 -0.707107 0.270598
v -0.382683 -0.923880 0.000000
v -0.353553 -0.923880 -0.146447
v -0.270598 -0.923880 -0.270598
v -0.146447 -0.923880 -0.353553
v 0.000000 -0.923880 -0.382683
v 0.146447 -0.923880 -0.353553
v 0.270598 -0.923880 -0.270598
v 0.353553 -0.923880 -0.146447
v 0.382683 -0.923880 0.000000
v 0.353553 -0.923880 0.146447
v 0.270598 -0.923880 0.270598
v 0.146447 -0.923880 0.353553
v 0.000000 -0.923880 0.382683
v -0.146447 -0.923880 0.353553
v -0.270598 -0.923880 0.270598
v -0.353553 -0.923880 0.146447
vt 0.145875 0.498047
vt 0.145875 0.498047
vt 0.145875 0.498047
vt 0.145875 0.498047
vt 0.172682 0.632817
vt 0.172682 0.307452
vt 0.172682 0.363276
vt 0.172682 0.363276
vt 0.172682 0.688641
vt 0.172682 0.307452
vt 0.172682 0.632817
vt 0.172682 0.688641
vt 0.249023 0.747070
vt 0.249023 0.145875
vt 0.249023 0.249023
vt 0.249023 0.249023
vt 0.249023 0.850219
vt 0.249023 0.145875
vt 0.249023 0.850219
vt 0.249023 0.145875
vt 0.249023 0.747070
vt 0.307452 0.498047
vt 0.307452 0.498047
vt 0.307452 0.498047
vt 0.307452 0.498047
vt 0.321960 0.425110
vt 0.321960 0.570984
vt 0.321960 0.307452
vt 0.321960 0.688641
vt 0.321960 0.307452
vt 0.321960 0.425110
vt 0.321960 0.570984
vt 0.321960 0.688641
vt 0.321960 0.307452
vt 0.363276 0.145875
vt 0.363276 0.172682
vt 0.363276 0.363276
vt 0.363276 0.363276
vt 0.363276 0.632817
vt 0.363276 0.823412
vt 0.363276 0.850219
vt 0.363276 0.145875
vt 0.363276 0.850219
vt 0.363276 0.145875
vt 0.363276 0.172682
vt 0.363276 0.632817
vt 0.363276 0.823412
vt 0.363276 0.850219
vt 0.425110 0.674133
vt 0.425110 0.321960
vt 0.425110 0.321960
vt 0.425110 0.674133
vt 0.498047 0.145875
vt 0.498047 0.850219
vt 0.498047 0.145875
vt 0.498047 0.307452
vt 0.498047 0.307452
vt 0.498047 0.307452
vt 0.498047 0.498047
vt 0.498047 0.498047
vt 0.498047 0.688641
vt 0.498047 0.688641
vt 0.498047 0.850219
vt 0.498047 0.145875
vt 0.498047 0.145875
vt 0.498047 0.307452
vt 0.498047 0.498047
vt 0.498047 0.688641
vt 0.498047 0.850219
vt 0.498047 0.850219
vt 0.570984 0.321960
vt 0.570984 0.674133
vt 0.570984 0.674133
vt 0.570984 0.321960
vt 0.632817 0.363276
vt 0.632817 0.145875
vt 0.632817 0.172682
vt 0.632817 0.363276
vt 0.632817 0.632817
vt 0.632817 0.632817
vt 0.632817 0.823412
vt 0.632817 0.850219
vt 0.632817 0.145875
vt 0.632817 0.172682
vt 0.632817 0.823412
vt 0.632817 0.850219
vt 0.674133 0.425110
vt 0.674133 0.570984
vt 0.674133 0.307452
vt 0.674133 0.425110
vt 0.674133 0.570984
vt 0.674133 0.688641
vt 0.674133 0.307452
vt 0.674133 0.688641
vt 0.688641 0.498047
vt 0.688641 0.498047
vt 0.688641 0.498047
vt 0.747070 0.145875
vt 0.747070 0.249023
vt 0.747070 0.249023
vt 0.747070 0.747070
vt 0.747070 0.747070
vt 0.747070 0.850219
vt 0.823412 0.307452
vt 0.823412 0.363276
vt 0.823412 0.632817
vt 0.823412 0.632817
vt 0.823412 0.688641
vt 0.823412 0.307452
vt 0.823412 0.363276
vt 0.823412 0.688641
vt 0.850219 0.498047
vt 0.850219 0.498047
vt 0.850219 0.498047
vn 0.000000 1.000000 0.000000
vn 0.000000 -1.000000 -0.000000
vn -0.468799 0.883305 0.000000
vn -0.392553 0.897489 -0.201037
vn -0.270598 0.923880 -0.270598
vn -0.179402 0.883305 -0.433114
vn 0.000000 0.923880 -0.382683
vn 0.135422 0.897489 -0.419732
vn 0.331492 0.883304 -0.331492
vn 0.353553 0.923880 -0.146446
vn 0.468799 0.883305 0.000000
vn 0.353554 0.923880 0.146446
vn 0.331492 0.883304 0.331491
vn 0.146446 0.923880 0.353553
vn 0.035510 0.897489 0.439605
vn -0.179402 0.883304 0.433115
vn -0.270598 0.923880 0.270598
vn -0.392553 0.897489 0.201037
vn -0.707107 0.707107 0.000000
vn -0.687670 0.687669 -0.232853
vn -0.527549 0.701737 -0.478809
vn -0.290970 0.649525 -0.702462
vn -0.000000 0.736401 -0.676545
vn 0.293564 0.665245 -0.686490
vn 0.552709 0.671093 -0.494112
vn 0.625047 0.736400 -0.258903
vn 0.760340 0.649526 0.000001
vn 0.625047 0.736400 0.258903
vn 0.552709 0.671093 0.494111
vn 0.281085 0.678598 0.678599
vn -0.048034 0.687670 0.724433
vn -0.321548 0.671093 0.668012
vn -0.478390 0.736400 0.478391
vn -0.693003 0.665246 0.277841
vn -0.918149 0.394897 0.032536
vn -0.859785 0.345236 -0.376273
vn -0.613461 0.372055 -0.696593
vn -0.320046 0.342931 -0.883159
vn 0.032536 0.394897 -0.918149
vn 0.353554 0.382683 -0.853553
vn 0.613461 0.372055 -0.696593
vn 0.859232 0.367493 -0.355906
vn 0.938408 0.342931 0.042286
vn 0.835807 0.394898 0.381421
vn 0.613461 0.372055 0.696593
vn 0.353554 0.382683 0.853553
vn 0.058783 0.372054 0.926348
vn -0.300190 0.372055 0.878329
vn -0.626223 0.394897 0.672236
vn -0.850794 0.342931 0.398181
vn -0.998031 0.000000 -0.062729
vn -0.923880 0.000000 -0.382683
vn -0.750070 -0.000000 -0.661359
vn -0.407456 -0.027118 -0.912822
vn 0.000000 -0.000000 -1.000000
vn 0.407456 0.027118 -0.912822
vn 0.750070 0.000000 -0.661359
vn 0.923880 0.000000 -0.382683
vn 0.998031 0.000000 -0.062729
vn 0.946065 -0.000000 0.323977
vn 0.750069 0.000000 0.661359
vn 0.382683 -0.000000 0.923880
vn -0.062729 0.000000 0.998031
vn -0.439883 0.000000 0.898055
vn -0.750070 0.000000 0.661358
vn -0.946065 0.000000 0.323977
vn -0.918149 -0.394897 0.032536
vn -0.859785 -0.345236 -0.376273
vn -0.613460 -0.372055 -0.696593
vn -0.353553 -0.382684 -0.853553
vn -0.032536 -0.394897 -0.918149
vn 0.341451 -0.372659 -0.862865
vn 0.633654 -0.342931 -0.693456
vn 0.859785 -0.345236 -0.376273
vn 0.918149 -0.394897 0.032536
vn 0.850793 -0.342932 0.398181
vn 0.626222 -0.394898 0.672236
vn 0.323569 -0.411839 0.851875
vn 0.014744 -0.372659 0.927851
vn -0.341451 -0.372659 0.862865
vn -0.633654 -0.342931 0.693455
vn -0.833338 -0.372054 0.408807
vn -0.676545 -0.736401 -0.000001
vn -0.699724 -0.671094 -0.244988
vn -0.527548 -0.701737 -0.478808
vn -0.290969 -0.649526 -0.702462
vn 0.000000 -0.736401 -0.676545
vn 0.244988 -0.671094 -0.699724
vn 0.521892 -0.665246 -0.533925
vn 0.670623 -0.701738 -0.240478
vn 0.690088 -0.723601 0.013423
vn 0.702462 -0.649526 0.290970
vn 0.478390 -0.736401 0.478390
vn 0.321547 -0.671094 0.668012
vn 0.048033 -0.687671 0.724432
vn -0.240478 -0.701738 0.670623
vn -0.533925 -0.665246 0.521892
vn -0.699724 -0.671094 0.244988
vn -0.382683 -0.923880 0.000000
vn -0.433115 -0.883304 -0.179402
vn -0.270598 -0.923880 -0.270598
vn -0.179402 -0.883304 -0.433114
vn 0.000000 -0.923880 -0.382683
vn 0.179402 -0.883304 -0.433115
vn 0.335958 -0.897489 -0.285738
vn 0.353554 -0.923880 -0.146446
vn 0.439605 -0.897489 -0.035511
vn 0.433115 -0.883304 0.179402
vn 0.270598 -0.923880 0.270598
vn 0.179402 -0.883304 0.433114
vn -0.035511 -0.897489 0.439605
vn -0.146446 -0.923880 0.353554
vn -0.285738 -0.897489 0.335958
vn -0.433114 -0.883305 0.179402
f 1/60/1 4/91/4 3/97/3
f 1/60/1 5/80/5 4/91/4
f 1/60/1 6/73/6 5/80/5
f 7/62/7 6/73/6 1/60/1
f 8/49/8 7/62/7 1/60/1
f 9/39/9 8/49/8 1/60/1
f 10/27/10 9/39/9 1/60/1
f 11/22/11 10/27/10 1/60/1
f 11/22/11 1/60/1 12/26/12
f 12/26/12 1/60/1 13/37/13
f 13/37/13 1/60/1 14/50/14
f 14/50/14 1/60/1 15/57/15
f 1/60/1 16/74/16 15/57/15
f 1/60/1 17/78/17 16/74/16
f 1/60/1 18/90/18 17/78/17
f 1/60/1 3/97/3 18/90/18
f 20/107/20 19/114/19 3/97/3
f 20/107/20 3/97/3 4/91/4
f 21/102/21 20/107/20 4/91/4
f 21/102/21 4/91/4 5/80/5
f 6/73/6 22/81/22 21/102/21
f 6/73/6 21/102/21 5/80/5
f 23/54/23 22/81/22 6/73/6
f 23/54/23 6/73/6 7/62/7
f 8/49/8 24/40/24 23/54/23
f 8/49/8 23/54/23 7/62/7
f 9/39/9 25/13/25 24/40/24
f 9/39/9 24/40/24 8/49/8
f 26/5/26 25/13/25 9/39/9
f 26/5/26 9/39/9 10/27/10
f 11/22/11 27/1/27 26/5/26
f 11/22/11 26/5/26 10/27/10
f 28/7/28 27/1/27 11/22/11
f 28/7/28 11/22/11 12/26/12
f 13/37/13 29/15/29 28/7/28
f 13/37/13 28/7/28 12/26/12
f 30/45/30 29/15/29 13/37/13
f 30/45/30 13/37/13 14/50/14
f 15/57/15 31/65/31 30/45/30
f 15/57/15 30/45/30 14/50/14
f 16/74/16 32/84/32 31/65/31
f 16/74/16 31/65/31 15/57/15
f 33/100/33 32/84/32 16/74/16
f 33/100/33 16/74/16 17/78/17
f 18/90/18 34/110/34 33/100/33
f 18/90/18 33/100/33 17/78/17
f 3/97/3 19/114/19 34/110/34
f 3/97/3 34/110/34 18/90/18
f 20/82/20 36/92/36 35/61/35
f 20/82/20 35/61/35 19/63/19
f 21/103/21 37/108/37 36/92/36
f 21/103/21 36/92/36 20/82/20
f 22/41/22 38/29/38 37/9/37
f 22/41/22 37/9/37 21/17/21
f 39/61/39 38/29/38 22/41/22
f 39/61/39 22/41/22 23/63/23
f 24/82/24 40/92/40 39/61/39
f 24/82/24 39/61/39 23/63/23
f 41/108/41 40/92/40 24/82/24
f 41/108/41 24/82/24 25/103/25
f 42/33/42 41/9/41 25/17/25
f 42/33/42 25/17/25 26/43/26
f 27/70/27 43/68/43 42/33/42
f 27/70/27 42/33/42 26/43/26
f 44/94/44 43/68/43 27/70/27
f 44/94/44 27/70/27 28/86/28
f 29/103/29 45/111/45 44/94/44
f 29/103/29 44/94/44 28/86/28
f 30/48/30 46/33/46 45/12/45
f 30/48/30 45/12/45 29/17/29
f 47/68/47 46/33/46 30/48/30
f 47/68/47 30/48/30 31/70/31
f 48/94/48 47/68/47 31/70/31
f 48/94/48 31/70/31 32/86/32
f 49/111/49 48/94/48 32/86/32
f 49/111/49 32/86/32 33/103/33
f 34/48/34 50/33/50 49/12/49
f 34/48/34 49/12/49 33/19/33
f 35/61/35 50/33/50 34/48/34
f 35/61/35 34/48/34 19/63/19
f 36/92/36 52/96/52 51/59/51
f 36/92/36 51/59/51 35/61/35
f 53/113/53 52/96/52 36/92/36
f 53/113/53 36/92/36 37/108/37
f 54/23/54 53/1/53 37/9/37
f 54/23/54 37/9/37 38/29/38
f 55/59/55 54/23/54 38/29/38
f 55/59/55 38/29/38 39/61/39
f 56/96/56 55/59/55 39/61/39
f 56/96/56 39/61/39 40/92/40
f 41/108/41 57/113/57 56/96/56
f 41/108/41 56/96/56 40/92/40
f 42/33/42 58/23/58 57/2/57
f 42/33/42 57/2/57 41/9/41
f 59/67/59 58/23/58 42/33/42
f 59/67/59 42/33/42 43/68/43
f 60/96/60 59/67/59 43/68/43
f 60/96/60 43/68/43 44/94/44
f 61/113/61 60/96/60 44/94/44
f 61/113/61 44/94/44 45/111/45
f 62/25/62 61/2/61 45/12/45
f 62/25/62 45/12/45 46/33/46
f 47/68/47 63/67/63 62/25/62
f 47/68/47 62/25/62 46/33/46
f 48/94/48 64/96/64 63/67/63
f 48/94/48 63/67/63 47/68/47
f 49/111/49 65/113/65 64/96/64
f 49/111/49 64/96/64 48/94/48
f 50/33/50 66/25/66 65/4/65
f 50/33/50 65/4/65 49/12/49
f 35/61/35 51/59/51 66/25/66
f 35/61/35 66/25/66 50/33/50
f 51/59/51 52/96/52 68/89/68
f 51/59/51 68/89/68 67/56/67
f 68/89/68 52/96/52 53/113/53
f 68/89/68 53/113/53 69/104/69
f 69/6/69 53/1/53 54/23/54
f 69/6/69 54/23/54 70/28/70
f 54/23/54 55/59/55 71/56/71
f 54/23/54 71/56/71 70/28/70
f 55/59/55 56/96/56 72/89/72
f 55/59/55 72/89/72 71/56/71
f 56/96/56 57/113/57 73/104/73
f 56/96/56 73/104/73 72/89/72
f 57/2/57 58/23/58 74/30/74
f 57/2/57 74/30/74 73/6/73
f 74/30/74 58/23/58 59/67/59
f 74/30/74 59/67/59 75/66/75
f 75/66/75 59/67/59 60/96/60
f 75/66/75 60/96/60 76/93/76
f 76/93/76 60/96/60 61/113/61
f 76/93/76 61/113/61 77/104/77
f 77/10/77 61/2/61 62/25/62
f 77/10/77 62/25/62 78/30/78
f 62/25/62 63/67/63 79/66/79
f 62/25/62 79/66/79 78/30/78
f 63/67/63 64/96/64 80/93/80
f 63/67/63 80/93/80 79/66/79
f 64/96/64 65/113/65 81/109/81
f 64/96/64 81/109/81 80/93/80
f 65/4/65 66/25/66 82/34/82
f 65/4/65 82/34/82 81/10/81
f 66/25/66 51/59/51 67/56/67
f 66/25/66 67/56/67 82/34/82
f 67/56/67 68/89/68 84/76/84
f 67/56/67 84/76/84 83/55/83
f 68/89/68 69/104/69 85/98/85
f 68/89/68 85/98/85 84/76/84
f 69/6/69 70/28/70 86/35/86
f 69/6/69 86/35/86 85/14/85
f 86/35/86 70/28/70 71/56/71
f 86/35/86 71/56/71 87/55/87
f 71/56/71 72/89/72 88/76/88
f 71/56/71 88/76/88 87/55/87
f 72/89/72 73/104/73 89/98/89
f 72/89/72 89/98/89 88/76/88
f 89/18/89 73/6/73 74/30/74
f 89/18/89 74/30/74 90/42/90
f 90/42/90 74/30/74 75/66/75
f 90/42/90 75/66/75 91/64/91
f 75/66/75 76/93/76 92/76/92
f 75/66/75 92/76/92 91/64/91
f 92/76/92 76/93/76 77/104/77
f 92/76/92 77/104/77 93/98/93
f 77/10/77 78/30/78 94/44/94
f 77/10/77 94/44/94 93/20/93
f 78/30/78 79/66/79 95/64/95
f 78/30/78 95/64/95 94/44/94
f 79/66/79 80/93/80 96/83/96
f 79/66/79 96/83/96 95/64/95
f 80/93/80 81/109/81 97/98/97
f 80/93/80 97/98/97 96/83/96
f 97/20/97 81/10/81 82/34/82
f 97/20/97 82/34/82 98/44/98
f 98/44/98 82/34/82 67/56/67
f 98/44/98 67/56/67 83/55/83
f 83/112/83 84/105/84 100/87/100
f 83/112/83 100/87/100 99/95/99
f 100/87/100 84/105/84 85/99/85
f 100/87/100 85/99/85 101/75/101
f 85/99/85 86/77/86 102/71/102
f 85/99/85 102/71/102 101/75/101
f 102/71/102 86/77/86 87/53/87
f 102/71/102 87/53/87 103/58/103
f 87/53/87 88/36/88 104/51/104
f 87/53/87 104/51/104 103/58/103
f 104/51/104 88/36/88 89/16/89
f 104/51/104 89/16/89 105/38/105
f 105/38/105 89/16/89 90/8/90
f 105/38/105 90/8/90 106/31/106
f 90/8/90 91/3/91 107/24/107
f 90/8/90 107/24/107 106/31/106
f 91/3/91 92/11/92 108/32/108
f 91/3/91 108/32/108 107/24/107
f 108/32/108 92/11/92 93/21/93
f 108/32/108 93/21/93 109/46/109
f 93/21/93 94/47/94 110/52/110
f 93/21/93 110/52/110 109/46/109
f 110/52/110 94/47/94 95/69/95
f 110/52/110 95/69/95 111/61/111
f 111/61/111 95/69/95 96/85/96
f 111/61/111 96/85/96 112/72/112
f 96/85/96 97/101/97 113/79/113
f 96/85/96 113/79/113 112/72/112
f 97/101/97 98/106/98 114/88/114
f 97/101/97 114/88/114 113/79/113
f 114/88/114 98/106/98 83/112/83
f 114/88/114 83/112/83 99/95/99
f 2/60/2 99/95/99 100/87/100
f 2/60/2 100/87/100 101/75/101
f 2/60/2 101/75/101 102/71/102
f 103/58/103 2/60/2 102/71/102
f 104/51/104 2/60/2 103/58/103
f 105/38/105 2/60/2 104/51/104
f 106/31/106 2/60/2 105/38/105
f 107/24/107 2/60/2 106/31/106
f 107/24/107 108/32/108 2/60/2
f 108/32/108 109/46/109 2/60/2
f 109/46/109 110/52/110 2/60/2
f 110/52/110 111/61/111 2/60/2
f 2/60/2 111/61/111 112/72/112
f 2/60/2 112/72/112 113/79/113
f 2/60/2 113/79/113 114/88/114
f 2/60/2 114/88/114 99/95/99
